<svg width="80" height="64" viewBox="0 0 80 64" fill="none" xmlns="http://www.w3.org/2000/svg">
<path d="M0 0.740234V63.2601H80V0.740234H0ZM21.2245 58.3621H4.89796V40.4029H21.2245V58.3621ZM21.2245 35.505H4.89796V17.5458H21.2245V35.505ZM34.6939 58.3621H26.1224V51.8315H34.6939V58.3621ZM34.6939 46.9335H26.1224V40.4029H34.6939V46.9335ZM34.6939 35.505H26.1224V28.9744H34.6939V35.505ZM34.6939 24.0764H26.1224V17.5458H34.6939V24.0764ZM48.1633 58.3621H39.5918V51.8315H48.1633V58.3621ZM48.1633 46.9335H39.5918V40.4029H48.1633V46.9335ZM48.1633 35.505H39.5918V28.9744H48.1633V35.505ZM48.1633 24.0764H39.5918V17.5458H48.1633V24.0764ZM61.6327 58.3621H53.0612V51.8315H61.6327V58.3621ZM61.6327 46.9335H53.0612V40.4029H61.6327V46.9335ZM61.6327 35.505H53.0612V28.9744H61.6327V35.505ZM61.6327 24.0764H53.0612V17.5458H61.6327V24.0764ZM75.102 58.3621H66.5306V51.8315H75.102V58.3621ZM75.102 46.9335H66.5306V40.4029H75.102V46.9335ZM75.102 35.505H66.5306V28.9744H75.102V35.505ZM75.102 24.0764H66.5306V17.5458H75.102V24.0764ZM75.102 12.6478H4.89796V5.63819H75.102V12.6478Z" fill="#FFCF3C"/>
</svg>
