<svg width="491" height="453" viewBox="0 0 491 453" fill="none" xmlns="http://www.w3.org/2000/svg">
<path d="M491 424.688C491 308.626 491 250.596 475.158 203.801C445.195 115.295 375.705 45.8049 287.199 15.8422C240.404 0 182.374 0 66.3126 0H28.3126C20.5752 0 16.7065 0 13.5868 1.05614C7.68643 3.05366 3.05371 7.68636 1.05621 13.5867C6.10352e-05 16.7064 6.10352e-05 20.5751 6.10352e-05 28.3125C6.10352e-05 144.374 6.10352e-05 202.404 15.8422 249.199C45.805 337.705 115.296 407.195 203.801 437.158C250.596 453 308.626 453 424.688 453H462.688C470.425 453 474.294 453 477.413 451.944C483.314 449.946 487.946 445.314 489.944 439.413C491 436.294 491 432.425 491 424.688Z" fill="#FFCF3C"/>
</svg>
