<svg width="66" height="66" viewBox="0 0 66 66" fill="none" xmlns="http://www.w3.org/2000/svg">
<g clip-path="url(#clip0_187_415)">
<path d="M0 0V66H66V0H0ZM31.0664 44.4475L33.8807 43.0084C34.7599 42.5587 35.708 42.3306 36.6985 42.3306C40.1185 42.3306 42.9011 45.1132 42.9011 48.5332C42.9011 51.9538 40.1185 54.7363 36.6985 54.7363C35.708 54.7363 34.7599 54.5082 33.8802 54.0585L31.0664 52.6194V62.1328H3.86719V34.9336H7.5536C7.44987 35.5157 7.397 36.1068 7.397 36.6985C7.397 42.251 11.9143 46.7683 17.4668 46.7683C23.0193 46.7683 27.5366 42.251 27.5366 36.6985C27.5366 36.1068 27.4837 35.5157 27.38 34.9336H31.0664V44.4475ZM3.86719 3.86719H31.0664V7.5536C30.4843 7.44987 29.8932 7.397 29.3015 7.397C23.749 7.397 19.2317 11.9143 19.2317 17.4668C19.2317 23.0193 23.749 27.5366 29.3015 27.5366C29.8932 27.5366 30.4843 27.4837 31.0664 27.38V31.0664H21.5525L22.9916 33.8802C23.4413 34.7599 23.6694 35.708 23.6694 36.6985C23.6694 40.1185 20.8868 42.9011 17.4668 42.9011C14.0462 42.9011 11.2637 40.1185 11.2637 36.6985C11.2637 35.708 11.4918 34.7599 11.9415 33.8802L13.3811 31.0664H3.86719V3.86719ZM62.1328 31.0664H58.4464C58.5501 30.4843 58.603 29.8932 58.603 29.3015C58.603 23.749 54.0857 19.2317 48.5332 19.2317C42.9807 19.2317 38.4634 23.749 38.4634 29.3015C38.4634 29.8932 38.5163 30.4843 38.62 31.0664H34.9336V21.5525L32.1198 22.9916C31.2401 23.4413 30.292 23.6694 29.3015 23.6694C25.8815 23.6694 23.0989 20.8868 23.0989 17.4668C23.0989 14.0462 25.8815 11.2637 29.3015 11.2637C30.292 11.2637 31.2401 11.4918 32.1198 11.9415L34.9336 13.3811V3.86719H62.1328V31.0664ZM62.1328 62.1328H34.9336V58.4464C35.5157 58.5501 36.1068 58.603 36.6985 58.603C42.251 58.603 46.7683 54.0857 46.7683 48.5332C46.7683 42.9807 42.251 38.4634 36.6985 38.4634C36.1068 38.4634 35.5157 38.5163 34.9336 38.62V34.9336H44.4475L43.0084 32.1198C42.5582 31.2401 42.3306 30.292 42.3306 29.3015C42.3306 25.8815 45.1132 23.0989 48.5332 23.0989C51.9532 23.0989 54.7358 25.8815 54.7358 29.3015C54.7358 30.292 54.5082 31.2401 54.058 32.1198L52.6189 34.9336H62.1328V62.1328Z" fill="#513CF3"/>
</g>
<defs>
<clipPath id="clip0_187_415">
<rect width="66" height="66" fill="white"/>
</clipPath>
</defs>
</svg>
